<svg xmlns="http://www.w3.org/2000/svg" viewBox="0 0 40 45" class="relative z-20 inline-block w-12 h-12 -mt-3 transition-transform duration-100 ease-in-out origin-bottom transform opacity-100 marker-icon" data-v-63d2a604=""><defs><filter id="b6135d341787460a96f129ec66be8814_a" width="250%" height="207.4%" x="-75%" y="-56.9%" filterUnits="objectBoundingBox"><feOffset dy="2" in="SourceAlpha" result="shadowOffsetOuter1"></feOffset><feGaussianBlur in="shadowOffsetOuter1" result="shadowBlurOuter1" stdDeviation="3"></feGaussianBlur><feColorMatrix in="shadowBlurOuter1" result="shadowMatrixOuter1" values="0 0 0 0 0 0 0 0 0 0.0862745098 0 0 0 0 0.254901961 0 0 0 0.25 0"></feColorMatrix><feMerge><feMergeNode in="shadowMatrixOuter1"></feMergeNode><feMergeNode in="SourceGraphic"></feMergeNode></feMerge></filter><filter id="b6135d341787460a96f129ec66be8814_b"><feColorMatrix in="SourceGraphic" values="0 0 0 0 1.000000 0 0 0 0 1.000000 0 0 0 0 1.000000 0 0 0 1.000000 0"></feColorMatrix></filter></defs><g fill="none" fill-rule="evenodd" filter="url(#b6135d341787460a96f129ec66be8814_a)" transform="translate(8 6)"><path fill="#FFF" d="M12.84665697 30.30978502l3.51980886-5.60017344L12 20.98610635l-4.36646583 3.72350523 3.51980881 5.60017345c.29389231.4675958.91120026.60841025 1.378796.31451798.1271216-.07989818.23461982-.1873964.31451799-.31451799z"></path><circle fill="currentColor" stroke="#FFF" stroke-width="2" cx="12" cy="12" r="13"></circle><g fill="#FFF" filter="url(#b6135d341787460a96f129ec66be8814_b)" transform="translate(4 4)"><path d="M9.56421626 10.80563334v2.2139134c0 .40942007.33315446.74254056.74272145.74254056h1.11599926v-2.39839743c0-.18683143.15198364-.33879959.33883411-.33879959h1.02131062c.18685047 0 .33883412.15196816.33883412.33879959v2.39839743h1.11556079c.40956699 0 .74272145-.33312049.74272145-.74254056v-2.03759492l-2.7079909-2.44861849-2.7079909 2.27230001z"></path><path fill-rule="nonzero" d="M12.00753183 6.68270548L8.64964438 9.55450035l-.0418827.0448317c-.12129215.15742322-.11356077.36993744.01490452.51149712l.0448317.0418827.05434192.03566344c.1494307.08242009.33132438.06362342.4571552-.05056796L12.272 7.50506667l2.91294314 2.6332499.04874885.03725656c.16862452.10516474.37933843.0764991.50752949-.06530896.1458641-.16135841.13330348-.41041147-.02805492-.55627557l-3.17684908-2.87179487-.05963225-.04448562c-.14822514-.09014175-.3394078-.07274667-.4691534.04499736z"></path><path d="M1.56421626 10.80563334v2.2139134c0 .40942007.33315446.74254056.74272145.74254056h1.11599926v-2.39839743c0-.18683143.15198364-.33879959.33883411-.33879959H4.7830817c.18685047 0 .33883412.15196816.33883412.33879959v2.39839743h1.11556079c.40956699 0 .74272145-.33312049.74272145-.74254056v-2.03759492l-2.7079909-2.44861849-2.7079909 2.27230001z"></path><path fill-rule="nonzero" d="M4.00753183 6.68270548L.64964438 9.55450035l-.0418827.0448317c-.12129215.15742322-.11356077.36993744.01490452.51149712l.0448317.0418827.05434192.03566344c.1494307.08242009.33132438.06362342.4571552-.05056796L4.272 7.50506667l2.91294314 2.6332499.04874885.03725656c.16862452.10516474.37933843.0764991.50752949-.06530896.1458641-.16135841.13330348-.41041147-.02805492-.55627557L4.53631748 6.68219373l-.05963225-.04448562c-.14822514-.09014175-.3394078-.07274667-.4691534.04499736z"></path><g><path d="M5.56421626 4.40563334v2.2139134c0 .40942007.33315446.74254056.74272145.74254056h1.11599926V4.96368987c0-.18683143.15198364-.33879959.33883411-.33879959H8.7830817c.18685047 0 .33883412.15196816.33883412.33879959V7.3620873h1.11556079c.40956699 0 .74272145-.33312049.74272145-.74254056V4.58195182l-2.7079909-2.44861849-2.7079909 2.27230001z"></path><path fill-rule="nonzero" d="M8.00753183.28270547L4.64964438 3.15450035l-.0418827.0448317c-.12129215.15742322-.11356077.36993744.01490452.51149712l.0448317.0418827.05434192.03566344c.1494307.08242009.33132438.06362342.4571552-.05056796L8.272 1.10506667l2.91294314 2.6332499.04874885.03725656c.16862452.10516474.37933843.0764991.50752949-.06530896.1458641-.16135841.13330348-.41041147-.02805492-.55627557L8.53631748.28219373 8.47668523.2377081c-.14822514-.09014175-.3394078-.07274667-.4691534.04499736z"></path></g></g></g></svg>